<?xml version="1.0" standalone="no"?>
<!DOCTYPE svg PUBLIC "-//W3C//DTD SVG 20010904//EN"
 "http://www.w3.org/TR/2001/REC-SVG-20010904/DTD/svg10.dtd">
<svg version="1.0" xmlns="http://www.w3.org/2000/svg"
 width="1077.000000pt" height="1077.000000pt" viewBox="0 0 1077.000000 1077.000000"
 preserveAspectRatio="xMidYMid meet">
<metadata>
Created by potrace 1.14, written by Peter Selinger 2001-2017
</metadata>
<g transform="translate(0.000000,1077.000000) scale(0.100000,-0.100000)"
fill="#000000" stroke="none">
<path d="M5215 10751 c-92 -21 -179 -50 -262 -87 -139 -63 -354 -172 -378
-191 -6 -4 -28 -17 -50 -29 -40 -21 -70 -37 -202 -113 -39 -22 -87 -49 -105
-59 -141 -81 -498 -294 -565 -338 -218 -144 -424 -348 -570 -564 -113 -167
-256 -502 -289 -680 -3 -14 -11 -52 -19 -85 -14 -62 -32 -179 -40 -250 -2 -22
-7 -71 -11 -110 -10 -91 -12 -4146 -2 -4247 9 -95 38 -158 92 -203 61 -50 329
-201 379 -213 23 -6 58 -9 77 -7 41 5 188 76 277 134 133 86 206 227 229 446
4 33 8 1050 9 2260 1 1210 5 2211 8 2224 40 153 97 209 377 368 58 33 254 145
435 250 182 104 422 243 535 308 113 65 242 139 286 165 45 26 88 50 95 54 8
3 28 14 44 25 40 24 359 209 410 237 22 12 96 54 165 94 174 101 188 110 248
143 29 16 50 33 46 38 -3 5 -39 28 -80 52 -42 23 -83 47 -92 52 -145 87 -411
223 -520 266 -185 74 -368 95 -527 60z"/>
<path d="M7448 9345 c-2 -1 -48 -5 -103 -9 -231 -15 -441 -65 -700 -166 -162
-64 -374 -178 -785 -423 -641 -382 -905 -606 -988 -840 -23 -64 -26 -88 -26
-212 -1 -134 8 -312 18 -365 3 -14 7 -45 10 -70 3 -25 8 -55 10 -66 2 -12 7
-39 10 -60 9 -56 56 -234 67 -256 5 -10 7 -18 5 -18 -6 0 39 -126 54 -152 6
-10 10 -23 10 -28 0 -21 110 -232 166 -317 87 -135 147 -209 263 -323 114
-113 147 -142 201 -180 19 -14 37 -28 40 -31 9 -11 194 -129 203 -129 4 0 7
300 6 668 -1 367 1 692 5 722 4 30 9 73 12 95 15 114 55 227 107 306 40 61
127 153 185 196 20 16 39 31 42 34 8 10 207 142 290 191 84 51 420 247 490
286 25 14 62 36 82 49 21 12 39 23 41 23 2 0 42 22 89 49 148 85 240 109 329
86 52 -14 206 -90 286 -141 29 -19 55 -34 57 -34 3 0 40 -21 83 -46 43 -26 94
-56 113 -67 19 -11 96 -54 170 -97 74 -43 151 -87 170 -97 19 -11 107 -62 195
-113 88 -52 178 -104 200 -116 91 -53 179 -129 206 -179 25 -49 31 -68 45
-145 3 -19 6 -1235 6 -2702 0 -1468 4 -2668 8 -2668 9 0 217 135 235 153 7 7
30 25 51 42 114 87 235 213 338 350 200 265 338 602 396 965 6 41 13 86 16
100 2 14 7 63 11 110 10 109 10 3220 1 3320 -14 139 -20 178 -54 365 -3 16
-17 68 -31 115 -14 47 -28 94 -30 105 -10 40 -75 202 -111 275 -100 207 -220
373 -385 536 -172 169 -270 240 -597 429 -113 65 -225 130 -250 145 -284 168
-639 285 -987 325 -51 6 -270 14 -275 10z"/>
<path d="M1513 8690 c-150 -101 -174 -121 -309 -255 -92 -91 -150 -157 -212
-240 -199 -268 -341 -654 -388 -1050 -3 -33 -9 -69 -12 -80 -10 -33 -11 -3233
-2 -3320 5 -44 12 -102 14 -130 15 -142 64 -357 116 -510 132 -391 370 -719
700 -967 94 -71 136 -97 460 -288 332 -196 607 -316 838 -365 9 -2 51 -11 92
-20 132 -28 308 -43 480 -39 91 2 176 5 190 8 14 2 59 10 100 16 198 31 409
95 620 186 212 91 830 452 1145 668 165 114 252 183 340 271 94 95 111 116
156 199 60 111 70 171 64 376 -3 96 -7 189 -10 205 -2 17 -6 55 -9 85 -4 30
-11 80 -16 110 -5 30 -12 69 -15 85 -41 238 -143 511 -273 730 -107 180 -342
441 -492 545 -19 13 -37 27 -40 30 -9 11 -193 130 -201 130 -5 0 -8 -294 -7
-652 2 -565 -2 -786 -17 -856 -43 -212 -111 -333 -260 -461 -101 -87 -605
-400 -910 -565 -11 -6 -27 -16 -35 -22 -8 -7 -62 -37 -120 -68 -152 -82 -219
-101 -306 -85 -44 8 -214 87 -304 140 -19 12 -217 127 -440 256 -594 345 -635
370 -690 420 -85 76 -106 141 -110 324 -1 63 -2 1274 -2 2692 0 1440 -4 2577
-9 2577 -5 0 -61 -36 -126 -80z"/>
<path d="M7405 7142 c-33 -6 -118 -39 -165 -63 -97 -50 -188 -170 -225 -298
-37 -125 -38 -140 -40 -2411 -2 -2093 -3 -2228 -20 -2280 -26 -83 -69 -136
-161 -201 -45 -31 -292 -179 -299 -179 -3 0 -33 -17 -67 -38 -35 -21 -83 -50
-108 -64 -100 -57 -313 -179 -435 -250 -253 -147 -661 -382 -720 -415 -33 -19
-82 -47 -110 -64 -27 -16 -59 -34 -70 -40 -11 -5 -29 -15 -40 -22 -26 -16
-241 -140 -286 -165 -19 -10 -90 -51 -157 -91 -68 -39 -127 -71 -132 -71 -6 0
-10 -4 -10 -9 0 -5 -9 -11 -21 -14 -12 -3 -18 -10 -15 -15 6 -9 71 -49 206
-124 25 -14 74 -42 110 -63 99 -57 291 -152 378 -187 272 -110 506 -100 806
35 216 97 868 462 1231 690 247 155 460 358 614 586 136 201 261 502 307 736
2 11 10 54 18 95 9 41 18 100 21 130 4 30 8 66 10 80 2 14 7 63 11 110 10 125
11 4141 0 4235 -4 44 -17 99 -28 122 -17 37 -91 112 -123 124 -5 2 -48 25 -95
51 -107 59 -182 79 -285 76 -44 -1 -89 -3 -100 -6z"/>
</g>
</svg>
